<svg xmlns="http://www.w3.org/2000/svg" version="1.1" xmlns:xlink="http://www.w3.org/1999/xlink" width="136.1" height="136.1"><svg version="1.1" id="SvgjsSvg1001" xmlns="http://www.w3.org/2000/svg" xmlns:xlink="http://www.w3.org/1999/xlink" x="0px" y="0px" viewBox="0 0 136.1 136.1" style="enable-background:new 0 0 136.1 136.1;" xml:space="preserve">
<style type="text/css">
	.st0{fill:#FFEC00;}
	.st1{fill:#1D1D1B;}
	.st2{fill:#FFFFFF;}
</style>
<g>
	<path class="st0" d="M13.2,133.1c-5.6,0-10.2-4.6-10.2-10.2V13.2C3,7.6,7.6,3,13.2,3h109.7c5.6,0,10.2,4.6,10.2,10.2v109.7
		c0,5.6-4.6,10.2-10.2,10.2H13.2z"></path>
	<g>
		<path class="st1" d="M122.9,6c4,0,7.2,3.2,7.2,7.2v109.7c0,4-3.2,7.2-7.2,7.2H13.2c-4,0-7.2-3.2-7.2-7.2V13.2C6,9.2,9.2,6,13.2,6
			H122.9 M122.9,0H13.2C5.9,0,0,5.9,0,13.2v109.7c0,7.3,5.9,13.2,13.2,13.2h109.7c7.3,0,13.2-5.9,13.2-13.2V13.2
			C136.1,5.9,130.2,0,122.9,0L122.9,0z"></path>
	</g>
</g>
<g>
	<path class="st2" d="M120.8,92.2v19.3c0,0.3,0,0.6,0,0.9c-0.2,4.5-2,10.1-3.6,15c-1.1,3.3-2,6.2-2.5,8.8H78.5
		c-1.2-5.3-4.5-10.9-6.7-13.2c-1.3-1.2-2.7-2.3-4.1-3.2c-3.6-2.6-6.8-5-8.8-10.8c-0.2-0.6-0.4-1.3-0.8-1.8c-1.9-4.7-3.9-7.3-5.2-9.1
		c-0.3-0.4-0.6-0.9-0.9-1.2c0,0,0-0.1,0-0.1c0.1-0.2,0.4-0.6,1-1.1c1.1-0.9,2.7-1.2,4.1-0.9c3.4,0.8,4.3,2.2,5.9,4.4
		c1.3,1.8,2.8,4.1,5.8,6v0.6c0,0.5,0.1,1,0.3,1.4c0.4,0.9,1.4,1.5,2.5,1.5c1.1,0,2-0.6,2.5-1.5c0.2-0.4,0.3-0.9,0.3-1.4V55.2
		c0-2.2,1.6-4,3.7-4c1.9,0,3.6,1.8,3.7,4.1l0.8,30.2c0,1.6,1.3,2.8,2.9,2.8c0.8,0,1.5-0.3,2-0.9c0.5-0.5,0.8-1.2,0.8-2.1L88,77.9
		c0.6-0.3,1.8-0.5,3.3-0.2c1.2,0.3,4.1,1.4,4.1,5.1c0,1.6,1.3,2.9,2.9,2.9s2.9-1.3,2.9-2.9c0-0.6-0.1-1.3-0.2-1.9
		c1.2-0.1,2.5,0.1,3.7,0.6c0.5,0.3,1.3,0.8,1.9,1.5c0.6,0.8,1.1,1.8,1.1,3.1c0,1.6,1.3,2.9,2.9,2.9s2.9-1.3,2.9-2.9
		c0-0.5,0-1-0.1-1.5c0.8-0.1,1.7,0,2.8,0.4c0.1,0,0.2,0.1,0.3,0.1c1.3,0.6,3.5,2,4.1,5.4C120.7,91,120.8,91.6,120.8,92.2z"></path>
	<path class="st1" d="M126.6,92.1c-0.3-2.9-0.9-6.3-3.4-9.2c-1-1.1-2.5-2.8-4.8-3.3c-2.9-0.7-4.9,0.8-7.3-0.5
		c-0.9-0.5-0.8-1.1-2-1.9c-0.9-0.6-1.8-0.9-2.8-1.2c-0.7-0.2-1.7-0.5-2.9-0.7c-0.6-0.1-1.5-0.2-2.4-0.1c-0.9,0.1-1.7,0.3-2.3,0.5
		c-1.4-1.6-3.3-2.8-5.7-3.3c-1.7-0.4-3.3-0.5-4.8-0.2l-0.4-17c-0.1-5.4-4.2-9.7-9.4-9.7s-9.4,4.4-9.4,9.7v42.3
		c-0.4-0.5-0.8-1.1-1.2-1.6c-1.8-2.6-3.8-5.5-9.4-6.7c-4.7-1.1-8.8,1.3-10.8,4c-1.5,2.3-1.7,4.7-0.3,6.8c0.5,0.7,0.9,1.3,1.2,1.6
		c0.5,0.7,1.3,1.6,2.2,3c0.6,1,1.1,1.9,1.5,2.6c0.8,1.6,1.3,2.9,1.3,3.1c0,0,0,0.2,0.1,0.3c0,0.1,0.1,0.2,0.1,0.2
		c0.3,0.6,2.2,4.5,3.4,6.5c1,1.6,3.1,3.4,7.5,7c3.3,2.8,2.9,2.2,3.4,2.8c2.3,2.5,3.9,6.2,4.7,9.1h5.9c-1.2-5.3-4.5-11-6.7-13.3
		c-1.3-1.2-2.7-2.3-4.1-3.2c-3.6-2.6-6.8-5-8.8-10.8c-0.2-0.6-0.4-1.3-0.8-1.8c-1.9-4.7-3.9-7.3-5.2-9.1c-0.3-0.4-0.6-0.8-0.9-1.2
		c0,0,0,0,0,0c0-0.2,0.3-0.6,1-1.2c1.1-0.9,2.7-1.2,4.1-0.9c3.4,0.8,4.3,2.2,5.9,4.4c1.3,1.8,2.8,4.1,5.8,6v0.6c0,0.5,0.1,1,0.3,1.4
		c0.4,0.9,1.4,1.5,2.5,1.5c1.1,0,2-0.6,2.5-1.5c0.2-0.4,0.3-0.9,0.3-1.4V55.1c0-2.2,1.6-4,3.7-4c1.9,0,3.6,1.8,3.7,4.1v0.1l0.8,30.2
		c0,1.6,1.3,2.8,2.9,2.8c0.8,0,1.5-0.3,2-0.9c0.5-0.5,0.8-1.2,0.8-2.1L88,77.9c0.6-0.3,1.8-0.5,3.3-0.2c1.2,0.3,4.1,1.4,4.1,5.1
		c0,1.6,1.3,2.9,2.9,2.9s2.9-1.3,2.9-2.9c0-0.6-0.1-1.3-0.2-1.9c1.2-0.1,2.5,0.1,3.7,0.6c0.5,0.3,1.3,0.8,1.9,1.5
		c0.6,0.8,1.1,1.8,1.1,3.1c0,1.6,1.3,2.9,2.9,2.9s2.9-1.3,2.9-2.9c0-0.5,0-1-0.1-1.5c0.8-0.1,1.7,0,2.8,0.4c0.1,0,0.2,0.1,0.3,0.1
		c1.3,0.6,3.5,2.1,4.1,5.4c0.1,0.5,0.1,1.1,0.1,1.7v19.3c0,0.3,0,0.6,0,0.9c-0.2,4.5-2,10-3.6,14.8c-1.1,3.3-2.1,6.3-2.5,8.9h5.2
		c0.8-2.6,1.4-4.8,2.5-7.9c2.5-7.1,2.7-5.1,4.3-16.8C126.6,111.5,127.8,103,126.6,92.1z"></path>
</g>
<g>
	<path class="st1" d="M24.3,31.7c4.1,0,7.4-3.3,7.4-7.4s-3.3-7.4-7.4-7.4l0,0c-4.1,0-7.4,3.3-7.4,7.4S20.2,31.7,24.3,31.7z"></path>
	<path class="st1" d="M53.4,31.7c4.1,0,7.4-3.3,7.4-7.4s-3.3-7.4-7.4-7.4l0,0c-4.1,0-7.4,3.3-7.4,7.4S49.3,31.7,53.4,31.7z"></path>
	<path class="st1" d="M82.5,31.7c4.1,0,7.4-3.3,7.4-7.4s-3.3-7.4-7.4-7.4l0,0c-4.1,0-7.4,3.3-7.4,7.4S78.6,31.7,82.5,31.7z"></path>
	<path class="st1" d="M24.3,60.8c4.1,0,7.4-3.3,7.4-7.4S28.4,46,24.3,46l0,0c-4.1,0-7.4,3.3-7.4,7.4S20.2,60.8,24.3,60.8z"></path>
	<path class="st1" d="M111.8,60.8c4.1,0,7.4-3.3,7.4-7.4s-3.3-7.4-7.4-7.4l0,0c-4.1,0-7.4,3.3-7.4,7.4S107.7,60.8,111.8,60.8z"></path>
	<path class="st1" d="M24.3,90.1c4.1,0,7.4-3.3,7.4-7.4c0-4.1-3.3-7.4-7.4-7.4l0,0c-4.1,0-7.4,3.3-7.4,7.4
		C16.9,86.8,20.2,90.1,24.3,90.1z"></path>
	<path class="st1" d="M53.4,60.8c4.1,0,7.4-3.3,7.4-7.4S57.5,46,53.4,46l0,0c-4.1,0-7.4,3.3-7.4,7.4S49.3,60.8,53.4,60.8z"></path>
	<path class="st1" d="M24.3,119.2c4.1,0,7.4-3.3,7.4-7.4c0-4.1-3.3-7.4-7.4-7.4l0,0c-4.1,0-7.4,3.3-7.4,7.4
		C16.9,115.9,20.2,119.2,24.3,119.2z"></path>
</g>
</svg><style>@media (prefers-color-scheme: light) { :root { filter: none; } }
@media (prefers-color-scheme: dark) { :root { filter: none; } }
</style></svg>