<?xml version="1.0" encoding="UTF-8"?> <svg xmlns="http://www.w3.org/2000/svg" xmlns:xlink="http://www.w3.org/1999/xlink" version="1.1" id="Слой_1" x="0px" y="0px" viewBox="0 0 136.1 136.1" style="enable-background:new 0 0 136.1 136.1;" xml:space="preserve"> <style type="text/css"> .st0{fill:#FFEC00;} .st1{fill:#FFFFFF;} .st2{fill:#1D1D1B;} </style> <g> <g> <g> <path class="st0" d="M107.6,8v65.3c-1.5-0.2-3-0.1-4.4,0.4c-1.3-1.5-3.1-2.6-5.3-3.1c-1.6-0.4-3.1-0.5-4.5-0.2L93,54.7 c-0.1-5-3.9-9-8.7-9c-4.8,0-8.7,4.1-8.7,9V94c-0.4-0.5-0.7-1-1.1-1.5c-1.7-2.4-3.5-5.1-8.7-6.2c-4.4-1-8.2,1.2-10,3.7 c-1.4,2.1-1.6,4.4-0.3,6.3c0.3,0.5,0.7,1,1.1,1.5c0.6,0.8,1.3,1.6,2,2.8H14.9c-1.5,0-2.7-1.2-2.7-2.7V8c0-1.5,1.2-2.7,2.7-2.7 h33.1c1.5,0,2.7-1.2,2.7-2.7h18.6c0,1.5,1.2,2.7,2.6,2.7h33.1C106.4,5.3,107.6,6.5,107.6,8z"></path> </g> <path class="st1" d="M123.8,89.2v18c0,4.3-1.8,9.8-3.4,14.6c-1.1,3.4-2.1,6.4-2.5,9l-33.2-0.1c-1-5.1-4.2-10.8-6.4-13 c-1.2-1.1-2.5-2.1-3.8-3c-3.3-2.4-6.3-4.6-8.2-10c-0.2-0.6-0.4-1.2-0.7-1.7c-1.8-4.4-3.6-6.8-4.8-8.4c-0.3-0.4-0.6-0.8-0.8-1.1 c0-0.2,0.3-0.6,0.9-1.1c1-0.8,2.5-1.1,3.8-0.8c3.2,0.7,4,2,5.5,4.1c1.2,1.7,2.6,3.8,5.4,5.6v0.6c0,0.5,0.1,0.9,0.3,1.3 c0.4,0.8,1.3,1.4,2.3,1.4s1.9-0.6,2.3-1.4c0.2-0.4,0.3-0.8,0.3-1.3v-47c0-2,1.5-3.7,3.4-3.7c1.8,0,3.3,1.7,3.4,3.8L88.3,83 c0,1.5,1.2,2.6,2.7,2.6H91c1.5,0,2.6-1.2,2.6-2.7l-0.2-7c0.6-0.3,1.7-0.5,3.1-0.2c1.1,0.3,3.8,1.3,3.8,4.7c0,1.5,1.2,2.7,2.7,2.7 c1.5,0,2.7-1.2,2.7-2.7c0-0.6-0.1-1.2-0.2-1.8c1.1-0.1,2.3,0.1,3.4,0.6c0,0,0,0,0,0c1,0.5,2.8,1.8,2.8,4.3c0,1.5,1.2,2.7,2.7,2.7 c1.5,0,2.7-1.2,2.7-2.7c0-0.5,0-0.9-0.1-1.4c0.7-0.1,1.6,0,2.6,0.4C120.9,83,123.8,84.6,123.8,89.2z"></path> <path class="st2" d="M121.6,77.5c-2.3-0.9-4.8-1.1-6.8-0.5c-0.5-0.7-1.2-1.2-1.9-1.8V8c0-4.4-3.6-8-8-8H71.8 c-1.5,0-2.6,1.2-2.6,2.7c0,1.5,1.2,2.7,2.6,2.7h33.1c1.5,0,2.7,1.2,2.7,2.7v65.3c-1.5-0.2-3-0.1-4.4,0.4c-1.3-1.5-3.1-2.6-5.3-3.1 c-1.6-0.4-3.1-0.5-4.5-0.2L93,54.7c-0.1-5-3.9-9-8.7-9c-4.8,0-8.7,4.1-8.7,9V94c-0.4-0.5-0.7-1-1.1-1.5c-1.7-2.4-3.5-5.1-8.7-6.2 c-4.4-1-8.2,1.2-10,3.7c-1.4,2.1-1.6,4.4-0.3,6.3c0.3,0.5,0.7,1,1.1,1.5c0.6,0.8,1.3,1.6,2,2.8H14.9c-1.5,0-2.7-1.2-2.7-2.7V8 c0-1.5,1.2-2.7,2.7-2.7h33.1c1.5,0,2.7-1.2,2.7-2.7c0-1.5-1.2-2.7-2.7-2.7H14.9c-4.4,0-8,3.6-8,8v90c0,4.4,3.6,8,8,8h46.3 c0.1,0.2,0.1,0.4,0.2,0.5c2.5,6.9,6.7,10,10.1,12.5c1.2,0.9,2.3,1.7,3.2,2.6c1.7,1.6,5,7.8,5,11.8c0,1.5,1.2,2.6,2.7,2.6l38,0.1h0 c1.5,0,2.6-1.2,2.7-2.6c0-2.3,1.2-6,2.5-10c1.7-5.2,3.6-11.1,3.6-16.3v-18C129.2,83.8,126.3,79.4,121.6,77.5z M123.8,107.1 c0,4.3-1.8,9.8-3.4,14.6c-1.1,3.4-2.1,6.4-2.5,9l-33.2-0.1c-1-5.1-4.2-10.8-6.4-13c-1.2-1.1-2.5-2.1-3.8-3 c-3.3-2.4-6.3-4.6-8.2-10c-0.2-0.6-0.4-1.2-0.7-1.7c-1.8-4.4-3.6-6.8-4.8-8.4c-0.3-0.4-0.6-0.8-0.8-1.1c0-0.2,0.3-0.6,0.9-1.1 c1-0.8,2.5-1.1,3.8-0.8c3.2,0.7,4,2,5.5,4.1c1.2,1.7,2.6,3.8,5.4,5.6v0.6c0,0.5,0.1,0.9,0.3,1.3c0.4,0.8,1.3,1.4,2.3,1.4 s1.9-0.6,2.3-1.4c0.2-0.4,0.3-0.8,0.3-1.3v-47c0-2,1.5-3.7,3.4-3.7c1.8,0,3.3,1.7,3.4,3.8L88.3,83c0,1.5,1.2,2.6,2.7,2.6H91 c1.5,0,2.6-1.2,2.6-2.7l-0.2-7c0.6-0.3,1.7-0.5,3.1-0.2c1.1,0.3,3.8,1.3,3.8,4.7c0,1.5,1.2,2.7,2.7,2.7c1.5,0,2.7-1.2,2.7-2.7 c0-0.6-0.1-1.2-0.2-1.8c1.1-0.1,2.3,0.1,3.4,0.6c0,0,0,0,0,0c1,0.5,2.8,1.8,2.8,4.3c0,1.5,1.2,2.7,2.7,2.7c1.5,0,2.7-1.2,2.7-2.7 c0-0.5,0-0.9-0.1-1.4c0.7-0.1,1.6,0,2.6,0.4c1.3,0.5,4.2,2.2,4.2,6.7V107.1z"></path> <path class="st2" d="M22.9,13.3L22.9,13.3c-1.5,0-2.7,1.2-2.7,2.7s1.2,2.7,2.7,2.7s2.7-1.2,2.7-2.7S24.3,13.3,22.9,13.3z"></path> <path class="st2" d="M33.5,13.3L33.5,13.3c-1.5,0-2.7,1.2-2.7,2.7s1.2,2.7,2.7,2.7s2.7-1.2,2.7-2.7S35,13.3,33.5,13.3z"></path> <path class="st2" d="M44.1,13.3L44.1,13.3c-1.5,0-2.7,1.2-2.7,2.7s1.2,2.7,2.7,2.7s2.7-1.2,2.7-2.7S45.6,13.3,44.1,13.3z"></path> <path class="st2" d="M65.4,18.6c1.5,0,2.7-1.2,2.7-2.7s-1.2-2.7-2.7-2.7h0c-1.5,0-2.7,1.2-2.7,2.7S63.9,18.6,65.4,18.6z"></path> <path class="st2" d="M76,18.6c1.5,0,2.7-1.2,2.7-2.7s-1.2-2.7-2.7-2.7h0c-1.5,0-2.7,1.2-2.7,2.7S74.5,18.6,76,18.6z"></path> <path class="st2" d="M86.6,18.6c1.5,0,2.7-1.2,2.7-2.7s-1.2-2.7-2.7-2.7h0c-1.5,0-2.7,1.2-2.7,2.7S85.2,18.6,86.6,18.6z"></path> <path class="st2" d="M22.9,23.9L22.9,23.9c-1.5,0-2.7,1.2-2.7,2.7s1.2,2.7,2.7,2.7s2.7-1.2,2.7-2.7S24.3,23.9,22.9,23.9z"></path> <path class="st2" d="M44.1,23.9L44.1,23.9c-1.5,0-2.7,1.2-2.7,2.7s1.2,2.7,2.7,2.7s2.7-1.2,2.7-2.7S45.6,23.9,44.1,23.9z"></path> <path class="st2" d="M54.7,29.2c1.5,0,2.7-1.2,2.7-2.7s-1.2-2.7-2.7-2.7h0c-1.5,0-2.7,1.2-2.7,2.7S53.3,29.2,54.7,29.2z"></path> <path class="st2" d="M65.4,29.2c1.5,0,2.7-1.2,2.7-2.7s-1.2-2.7-2.7-2.7h0c-1.5,0-2.7,1.2-2.7,2.7S63.9,29.2,65.4,29.2z"></path> <path class="st2" d="M86.6,29.2c1.5,0,2.7-1.2,2.7-2.7s-1.2-2.7-2.7-2.7h0c-1.5,0-2.7,1.2-2.7,2.7S85.2,29.2,86.6,29.2z"></path> <path class="st2" d="M97.3,29.2c1.5,0,2.7-1.2,2.7-2.7s-1.2-2.7-2.7-2.7h0c-1.5,0-2.7,1.2-2.7,2.7S95.8,29.2,97.3,29.2z"></path> <path class="st2" d="M22.9,34.5L22.9,34.5c-1.5,0-2.7,1.2-2.7,2.7s1.2,2.7,2.7,2.7s2.7-1.2,2.7-2.7S24.3,34.5,22.9,34.5z"></path> <path class="st2" d="M33.5,34.5L33.5,34.5c-1.5,0-2.7,1.2-2.7,2.7s1.2,2.7,2.7,2.7s2.7-1.2,2.7-2.7S35,34.5,33.5,34.5z"></path> <path class="st2" d="M54.7,39.9c1.5,0,2.7-1.2,2.7-2.7s-1.2-2.7-2.7-2.7h0c-1.5,0-2.7,1.2-2.7,2.7S53.3,39.9,54.7,39.9z"></path> <path class="st2" d="M65.4,39.9c1.5,0,2.7-1.2,2.7-2.7s-1.2-2.7-2.7-2.7h0c-1.5,0-2.7,1.2-2.7,2.7S63.9,39.9,65.4,39.9z"></path> <path class="st2" d="M76,39.9c1.5,0,2.7-1.2,2.7-2.7s-1.2-2.7-2.7-2.7h0c-1.5,0-2.7,1.2-2.7,2.7S74.5,39.9,76,39.9z"></path> <path class="st2" d="M97.3,39.9c1.5,0,2.7-1.2,2.7-2.7s-1.2-2.7-2.7-2.7h0c-1.5,0-2.7,1.2-2.7,2.7S95.8,39.9,97.3,39.9z"></path> <path class="st2" d="M22.9,45.2L22.9,45.2c-1.5,0-2.7,1.2-2.7,2.7s1.2,2.7,2.7,2.7s2.7-1.2,2.7-2.7S24.3,45.2,22.9,45.2z"></path> <path class="st2" d="M33.5,45.2L33.5,45.2c-1.5,0-2.7,1.2-2.7,2.7s1.2,2.7,2.7,2.7s2.7-1.2,2.7-2.7S35,45.2,33.5,45.2z"></path> <path class="st2" d="M54.7,50.5c1.5,0,2.7-1.2,2.7-2.7s-1.2-2.7-2.7-2.7h0c-1.5,0-2.7,1.2-2.7,2.7S53.3,50.5,54.7,50.5z"></path> <path class="st2" d="M65.4,50.5c1.5,0,2.7-1.2,2.7-2.7s-1.2-2.7-2.7-2.7h0c-1.5,0-2.7,1.2-2.7,2.7S63.9,50.5,65.4,50.5z"></path> <path class="st2" d="M33.5,55.8L33.5,55.8c-1.5,0-2.7,1.2-2.7,2.7s1.2,2.7,2.7,2.7s2.7-1.2,2.7-2.7S35,55.8,33.5,55.8z"></path> <path class="st2" d="M44.1,55.8L44.1,55.8c-1.5,0-2.7,1.2-2.7,2.7s1.2,2.7,2.7,2.7s2.7-1.2,2.7-2.7S45.6,55.8,44.1,55.8z"></path> <path class="st2" d="M65.4,61.1c1.5,0,2.7-1.2,2.7-2.7s-1.2-2.7-2.7-2.7h0c-1.5,0-2.7,1.2-2.7,2.7S63.9,61.1,65.4,61.1z"></path> <path class="st2" d="M22.9,66.4L22.9,66.4c-1.5,0-2.7,1.2-2.7,2.7c0,1.5,1.2,2.7,2.7,2.7s2.7-1.2,2.7-2.7 C25.5,67.6,24.3,66.4,22.9,66.4z"></path> <path class="st2" d="M44.1,66.4L44.1,66.4c-1.5,0-2.7,1.2-2.7,2.7c0,1.5,1.2,2.7,2.7,2.7s2.7-1.2,2.7-2.7 C46.8,67.6,45.6,66.4,44.1,66.4z"></path> <path class="st2" d="M54.7,71.8c1.5,0,2.7-1.2,2.7-2.7c0-1.5-1.2-2.7-2.7-2.7h0c-1.5,0-2.7,1.2-2.7,2.7 C52.1,70.6,53.3,71.8,54.7,71.8z"></path> <path class="st2" d="M65.4,71.8c1.5,0,2.7-1.2,2.7-2.7c0-1.5-1.2-2.7-2.7-2.7h0c-1.5,0-2.7,1.2-2.7,2.7 C62.7,70.6,63.9,71.8,65.4,71.8z"></path> <path class="st2" d="M22.9,77.1L22.9,77.1c-1.5,0-2.7,1.2-2.7,2.7s1.2,2.7,2.7,2.7s2.7-1.2,2.7-2.7S24.3,77.1,22.9,77.1z"></path> <path class="st2" d="M33.5,77.1L33.5,77.1c-1.5,0-2.7,1.2-2.7,2.7s1.2,2.7,2.7,2.7s2.7-1.2,2.7-2.7S35,77.1,33.5,77.1z"></path> <path class="st2" d="M44.1,77.1L44.1,77.1c-1.5,0-2.7,1.2-2.7,2.7s1.2,2.7,2.7,2.7s2.7-1.2,2.7-2.7S45.6,77.1,44.1,77.1z"></path> <path class="st2" d="M22.9,87.7L22.9,87.7c-1.5,0-2.7,1.2-2.7,2.7c0,1.5,1.2,2.7,2.7,2.7s2.7-1.2,2.7-2.7 C25.5,88.9,24.3,87.7,22.9,87.7z"></path> <path class="st2" d="M44.1,87.7L44.1,87.7c-1.5,0-2.7,1.2-2.7,2.7c0,1.5,1.2,2.7,2.7,2.7s2.7-1.2,2.7-2.7 C46.8,88.9,45.6,87.7,44.1,87.7z"></path> <path class="st2" d="M59.9,5.3c1.5,0,2.7-1.2,2.7-2.7S61.4,0,59.9,0h0c-1.5,0-2.7,1.2-2.7,2.7S58.4,5.3,59.9,5.3z"></path> </g> </g> </svg> 